# xmcd
#
# Track frame offsets: 
#        150
#        10649
#        32572
#        49618
#        71455
#        92534
#        114538
#        136354
#        160148
#        191283
#
# Disc length: 2897 seconds
#
# Revision: 0
# Processed by: cddbd v1.5.2PL0 Copyright (c) Steve Scherf et al.
# Submitted via: ExactAudioCopy v0.99pb1
#
DISCID=710b4f0a
DTITLE=Billy Goodman - Neuenkirchen Dec 1 2007 1
DYEAR=1900
DGENRE=
TTITLE0=Intro
TTITLE1=Central Florida
TTITLE2=Good Friend (Robert Johnson)
TTITLE3=Independance Day
TTITLE4=Kind Hearted Woman (Robert Johnson)
TTITLE5=Over and Over Again
TTITLE6=Death Don't Have No Mercy
TTITLE7=Vigilante Man (Woodie Guthrie)
TTITLE8=Dark was the Night Cold was the Ground (Blind Willie Johnson)
TTITLE9=Hellride
EXTD=
EXTT0=
EXTT1=
EXTT2=
EXTT3=
EXTT4=
EXTT5=
EXTT6=
EXTT7=
EXTT8=
EXTT9=
PLAYORDER=
